# xmcd CD database file
#
# Track frame offsets:
#	150
#	2511
#	16458
#	101293
#	202165
#
# Disc length: 4559 seconds
#
# Revision: 0
# Processed by: cddbd v1.5.2PL0 Copyright (c) Steve Scherf et al.
# Submitted via: CDex 1.51
#
DISCID=3311cd05
DTITLE=Dolores Ashcroft Nowicki - Your Unseen Power - 09 - Highways of the Mind
DYEAR=2006
DGENRE=New Age
TTITLE0=Introduction
TTITLE1=Our final pathworkings
TTITLE2=Pathworking - Kamuas
TTITLE3=Pathworking - Basilides
TTITLE4=Practicing the presence
EXTD=YEAR: 2006
EXTT0=
EXTT1=
EXTT2=
EXTT3=
EXTT4=
PLAYORDER=
